<?xml version="1.0" encoding="UTF-8"?><svg xmlns="http://www.w3.org/2000/svg" viewBox="0 0 573.93 462.32"><defs><style>.cls-1{fill:#c41230;}.cls-2{fill:#231f20;}</style></defs><g id="SCOTTY_SILHOUETTE"><g><path class="cls-2" d="M423.05,192.92l-26.14,196.79,11.41,38.49,19.78,5.22c-2.61-1.58-5.21-2.68-7.24-3.33-.19-.06-.34-.08-.51-.12,0-.01-.02-.02-.02-.03,1.09,0,1.96-.21,2.8-.62,.45-.22-.9,.21-4.33-2.23-.51-.37-.98-.81-1.4-1.26,1.45,.13,2.55-.07,3.57-.55,.45-.22-.9,.21-4.33-2.23-1.12-.8-2.05-1.96-2.64-2.81-16.29-32.62,22.11-56.97,27.34-65.67l-.42,7.17s5.03-5.45,8.8-11.73c2.16-3.59,5.45-10.05,5.45-10.05v9.22s7.75-3.42,12.15-28.07c14.38-80.59-16.81-122.04,20.88-166.21l-14.69-19.05-50.44,57.07Z"/><path class="cls-2" d="M127.57,340.71l8.34,36.25c43.06,28.47,83.24,36.76,121.55,40.54-.94,1.05,.8,4.24,4.58,3.11,.11,0,.22,.02,.34,.03-1.38,1.87,1.66,2.77,6.96,.52,.14,0,.28,.02,.42,.03-1.53,2.27,2.06,3.34,8.01,.43,.24,.01,.49,.02,.73,.03-1.77,3.32,2.92,4.83,10.03,.26,.09,0,.19,0,.28,0-1.81,3.69,3.47,5.4,10.98,.01-1.83,4.25,3.8,6.24,11.62,.1,.21-.17,.43-.39,.65-.59,.13,0,.25-.02,.39-.02-1.59,6.18,5.54-7.8,13.36-13.95,1.02-.8-.6,14.9,.4,13.71h0s.03,.05,.04,.07c16.78-43.58,37.97-100.01,37.97-100.01l-236.64,19.48Z"/><path class="cls-2" d="M98.01,384.86c91.13,30.39,133.41,32.06,152.86,33.01l-7.58,4.01s7.31,1.88,19.25,1.88c5.68,0,11.5-.28,11.5-.28l-9.95,4.18s26.1,5.68,57.44-1.31c34.38-7.67,50.45-23.22,69.02-32.96l-254.64-16.42-37.9,7.9Z"/><path class="cls-2" d="M379.85,70.95s-18.26-57.49-53.51-59.12c0,0,5.37,12.21,5.37,33.15,0,10.58-3.41,38.98,24.63,54.71l23.5-28.73Z"/><path class="cls-2" d="M402.5,73.74s2.28-60.28-30.34-73.74c0,0,.92,13.31-6.16,33.01-3.58,9.96-16.4,35.53,4.67,59.81l31.83-19.08Z"/><path class="cls-2" d="M386.32,55.75s16.89,.08,21.16-6.1c4.27-6.18,8.18-7.96,16.6-13.55,0,0-6.75,9.26-4.88,16.84,0,0,12.72-12.44,28.47-16.56,0,0-4.37,3.56-3.49,7.42,0,0,31.96-7.5,38.85-2.77,0,0-30.68,3.62-27.93,19.98,0,0,59.81-12.23,66.61-22.31,0,0,1.38,4.34-.61,8.56,0,0,20.17-3.98,29.93-1.65,0,0-3.29,55.88-2.76,63.31,0,0-32.72-16.11-52.04,34.4,0,0-43.37-29.96-28.13,77.33,0,0-90.78,15.84-126.38-41.02,0,0,12.24-60.93-11.98-82.24,0,0,6.66,.43,14.93,8.3,0,0-10.32-21.6-18.32-28.17,0,0,16.48,8.15,23.77,15.01,0,0,14.4-41.28,36.21-36.8Z"/><path class="cls-2" d="M564.5,113.37c1.8-10.63-6.89-15.51-8.61-27.95l-98.26,37.27c11.34,62.46,74.03,67.94,74.03,67.94-7.03-9.71-5.8-17.98-5.8-17.98,0,0,9.94,10.07,15.2,17.97,3.58,5.38,8.3,17.83,8.3,17.83,0,0,20.55-35.87,13.78-62.44-6.25-24.52,.07-30.08,1.37-32.63Z"/><path class="cls-2" d="M560.62,121.64c.74,4.76,7.92,25.82,7.92,25.82,17.43-72.9-13.01-88.17-13.01-88.17-.37-7.77-3.68-13.17-3.68-13.17-10.12-2.67-31.26,.97-31.26,.97,2.18-4.35,.86-8.91,.86-8.91-3.69,5.2-21.59,12.37-38.5,18.22l80.18,89.6c-4.14-14.15-2.51-24.36-2.51-24.36Z"/><path class="cls-2" d="M430.24,430.61c6.27,1.88,16.93,1.61,16.93,1.61-6.42-1.47-20.99-11.42-20.99-11.42,7.15,2.18,10.09,.32,10.09,.32-7.97-2.11-16.58-9.87-24.06-18.47l19.21,30.71c-.71-1.71-1.18-2.74-1.18-2.74Z"/><path class="cls-2" d="M150.46,244.44c-32.01-59.77-15.06-111.13-1.04-152.8,1-2.97-.98-5.59-4.34-2.8-.85,.7-1.89,1.77-3.02,3.04-19.35,20.68-32.07,46.81-38.65,75.46-3.51-5.53-11.71-12.29-11.71-12.29,3.89,5.32,8.37,22.38,8.37,22.38-3.98-6.34-7.41-6.85-7.41-6.85,4.41,6.49,5.9,17.21,6.05,28.05-2.33,30.52,1.48,62.54,10.94,92.98l5.69-7.88c.72,2.43,1.47,4.86,2.25,7.28l32.89-46.57Z"/><path class="cls-2" d="M25.41,452.39C-2.25,426.18,.81,357.55,6.23,340.36l-6.23,6.5s1.28-9.27,4.24-18.09c1.69-5.04,5.17-13.58,5.17-13.58l-8.4,7.85s11.08-35.4,29.7-60.96c22.09-30.33,44.7-41.16,62.28-54.96l-56.81,149.83-10.78,95.45Z"/><path class="cls-2" d="M157.79,378.2l-30.37-15.61s-1.6,7.7-25.57,23.88c-23.97,16.18-27.63,47.9-27.63,47.9,0,0,12,.17,12.69,11.91,.69,11.74-6.23,15.37-12.52,15.7-6.78,.35-17.28,.69-24.28-.44-15.1-2.43-22.68-4.02-29.51-14.53-2.95-4.54,2.59-22.99,1.21-25.06-1.38-2.07-8.28-26.92-8.28-35.9s15.19-50.39,14.5-54.53-4.14-26.86-2.76-32.07,7.59-45.44,31.06-66.05c23.47-20.61,38.76-30.72,54.66-33.11,19.59-2.95,56.83,4.56,56.83,4.56l13.61,2.26-23.62,171.08Z"/><path class="cls-2" d="M448.16,341.05c11.1-28.02,18.28-54.38,17.34-100.92-.63-31.24-15-34.32,2.31-70.21l-15.77-25.18-112.04-30.6c11.32,37.69-7.19,84.94-22.06,91.85-46.13,21.43-140.86-2.54-159.75-1.84-8.34,.31-18.73-.37-30.96,2.58v5.25l2.66-.68-2.72,.7c.02,29.2,.05,74.39,.08,125.16,0,12.62-29.19,35.97-29.18,47.74,13.08,7.75,44.77-4.31,39.44,8.04,.18,.02,.37,.04,.56,.07,0,0,0,0,.01,0,27.47,3.28,50.39,6.26,100.11,4.89,51.48-1.43,100.41,2.36,108.43,2.25,.99,3.45,1.98,8.12,3.01,12.95h-6.6l.56,2.98c.14,.26,6.7,.5,6.84,.76,1.18,5.49,2.39,10.86,3.68,14.6,4.62,13.4,10.46,16.85,15.86,19.91h79.81s-.07-.06-.1-.09c.09,0,.18,0,.18,0,0,0,1.92-2.86,1.53-5.17-1.74-10.41-12.67-14.4-18.6-16.28-.2-.06-.34-.08-.52-.12,0-.01-.02-.02-.02-.03,1.11,0,2-.22,2.86-.63,.46-.22-.92,.22-4.41-2.28-.52-.37-1-.82-1.43-1.29,1.48,.13,2.65,.63,3.69,.13,.46-.22-.98-.48-4.47-2.97-.88-.63-2.08-1.57-2.86-2.37-.64-1.41-1.24-2.85-1.78-4.31-.21-.94-.39-1.88-.68-2.84h-.31c-2.66-8.35-3.59-17.39-1.93-27,2.36-13.64,21.21-29.82,27.23-45.04ZM155.06,204.85c2.71,.61,7.57,1.66,14.08,2.88-6.51-1.21-11.38-2.26-14.1-2.87h.03Z"/><path class="cls-2" d="M346.62,400.14s4.71,50.93,34.08,56.39c14.82,2.76,25.26,3.39,30.18,3.39,8.88,0,43.68,.32,40.51-13.82-5.02-22.37-43.07-17.88-43.07-17.88l-37.92-44.66-23.78,16.6Z"/><path class="cls-2" d="M92.99,403.39s-12.27,21.5-5.91,31.86c0,0-11.48-3.69-14.34-15.69l20.25-16.17Z"/><path class="cls-2" d="M86.15,407.4s-4.85,24.25,4.46,32.08c0,0-12.07,.09-18.58-10.4l14.12-21.68Z"/><path class="cls-2" d="M409.88,220.81c2.59,5.94,60.76,34.64,60.76,34.64,.61,.43-21.2-13.99-20.46-13.48,.02,.01,.04,.03,.06,.04,.34,.24,.7,.48,1.07,.74,.08,.05,.16,.11,.24,.16,.34,.23,.7,.47,1.07,.72,.07,.05,.15,.1,.22,.15,.37,.25,.75,.5,1.14,.77,.15,.1,.31,.21,.46,.31,.36,.24,.72,.48,1.1,.73,.16,.1,.32,.21,.48,.32,.39,.26,.78,.52,1.19,.79,.2,.13,.41,.27,.61,.4,.4,.26,.79,.52,1.21,.8,.22,.14,.45,.3,.68,.45,.43,.28,.86,.57,1.31,.86,.22,.14,.45,.29,.67,.44,.49,.32,.97,.64,1.48,.97,.24,.16,.5,.33,.75,.49,.5,.33,1,.65,1.53,1,.38,.25,.79,.51,1.18,.76,.43,.28,.85,.55,1.3,.84,.46,.3,.96,.62,1.44,.93,.41,.27,.82,.53,1.24,.8,0,0,.02,.01,.03,.02-.26-5.39-1.44-27.78-1.78-32.78-7.57-6.57-30.29-22.08-36.88-26.61-2.59,.09-19.22,24.74-22.13,24.73Z"/><path class="cls-2" d="M102.97,448.49c-4.65-20.73-37.66-18.4-42.47-17.95l-3.72,3.04v28.53c2.33,.14,4.24,.2,5.67,.2,8.88,0,43.68,.32,40.51-13.82Z"/><path class="cls-2" d="M65.31,448.33h14.67l6.17-40.93s12.26-14.38,13-15.74-30.65-9.93-30.65-9.93l-11.72,14.76,8.52,51.85Z"/><g><path class="cls-2" d="M110.42,379.53s-14.16,20.35-8.76,31.22c0,0-11.1-4.67-12.87-16.88l21.63-14.35Z"/><path class="cls-2" d="M99.15,391.66s-12.27,21.5-5.91,31.86c0,0-11.48-3.69-14.34-15.69l20.25-16.17Z"/></g><path class="cls-2" d="M470.66,255.47c-.23-4.59-1.11-21.49-1.57-29.49-.08-1.39-.15-2.55-.2-3.29-7.57-6.57-30.29-22.08-36.88-26.61-2.59,.09-19.22,24.74-22.13,24.73,.13,.3,.44,.67,.84,1.08,7.49,7.68,59.61,33.4,59.91,33.56-.05-.03-.18-.11-.38-.24,.13,.08,.26,.17,.39,.25,0,0,.02,.01,.03,.02Z"/></g></g><g id="SCARF"><path class="cls-1" d="M492.44,263.48c-2.6-8.36-16.06-27.5-23.35-37.51,.47,8.01,1.35,24.9,1.57,29.49,0,0-.02-.01-.03-.02-.13-.09-.26-.17-.39-.25,.2,.13,.32,.21,.38,.24-.31-.15-52.42-25.88-59.91-33.56-1.44-.73-2.91-1.48-4.41-2.25-4.85-2.84-9.5-5.61-13.61-8.13-35.14-23.97-49.82-59-49.82-59l.52-8.09s-3.05-3.18-7.39-.87c-1.88,1-4.84,4.56-6.11,8.96-20.14,69.94,49.37,106.52,85.97,131.25,36.57,24.74,55.93,48.87,55.93,48.87,1.94-1.24,4.04-12.59,7.33-22.28,0,0,0,0,0,0,.88-2.77,3.61-7.93,5.38-11.14,.74-.92,1.21-1.82,1.52-2.72,.03-.06,.06-.1,.06-.1,0,0,0,0,0,0,7.46-12.77,9.34-23.34,6.36-32.91Z"/></g></svg>